<svg xmlns="http://www.w3.org/2000/svg" viewBox="0 0 160 96" role="img"><title>table</title><line x1="24" y1="19" x2="139" y2="19" stroke="#347761" stroke-width="2" stroke-linecap="round"/><line x1="24" y1="35" x2="139" y2="35" stroke="#dbe5df" stroke-width="1" stroke-linecap="round"/><line x1="24" y1="78" x2="139" y2="78" stroke="#347761" stroke-width="1" stroke-linecap="round"/><rect x="28" y="25" width="23" height="3" fill="#347761" rx="1"/><rect x="71" y="25" width="19" height="3" fill="#347761" rx="1"/><rect x="113" y="25" width="22" height="3" fill="#347761" rx="1"/><rect x="28" y="44" width="23" height="3" fill="#527f99" rx="1"/><rect x="71" y="44" width="19" height="3" fill="#527f99" rx="1"/><rect x="113" y="44" width="22" height="3" fill="#527f99" rx="1"/><rect x="28" y="57" width="23" height="3" fill="#527f99" rx="1"/><rect x="71" y="57" width="19" height="3" fill="#527f99" rx="1"/><rect x="113" y="57" width="22" height="3" fill="#527f99" rx="1"/><rect x="28" y="70" width="23" height="3" fill="#527f99" rx="1"/><rect x="71" y="70" width="19" height="3" fill="#527f99" rx="1"/><rect x="113" y="70" width="22" height="3" fill="#527f99" rx="1"/></svg>