<svg xmlns="http://www.w3.org/2000/svg" viewBox="0 0 160 96" role="img"><title>upset</title><rect x="48" y="12" width="8" height="32" fill="#347761" rx="1"/><circle cx="52" cy="57" r="2.5" fill="#347761"/><circle cx="52" cy="69" r="2.5" fill="#dbe5df"/><circle cx="52" cy="81" r="2.5" fill="#dbe5df"/><rect x="62" y="24" width="8" height="20" fill="#347761" rx="1"/><circle cx="66" cy="57" r="2.5" fill="#dbe5df"/><circle cx="66" cy="69" r="2.5" fill="#347761"/><circle cx="66" cy="81" r="2.5" fill="#dbe5df"/><rect x="76" y="28" width="8" height="16" fill="#347761" rx="1"/><circle cx="80" cy="57" r="2.5" fill="#dbe5df"/><circle cx="80" cy="69" r="2.5" fill="#dbe5df"/><circle cx="80" cy="81" r="2.5" fill="#347761"/><rect x="90" y="32" width="8" height="12" fill="#347761" rx="1"/><line x1="94" y1="57" x2="94" y2="69" stroke="#347761" stroke-width="1.6" stroke-linecap="round"/><circle cx="94" cy="57" r="2.5" fill="#347761"/><circle cx="94" cy="69" r="2.5" fill="#347761"/><circle cx="94" cy="81" r="2.5" fill="#dbe5df"/><rect x="104" y="36" width="8" height="8" fill="#347761" rx="1"/><line x1="108" y1="57" x2="108" y2="81" stroke="#347761" stroke-width="1.6" stroke-linecap="round"/><circle cx="108" cy="57" r="2.5" fill="#347761"/><circle cx="108" cy="69" r="2.5" fill="#dbe5df"/><circle cx="108" cy="81" r="2.5" fill="#347761"/><rect x="118" y="40" width="8" height="4" fill="#347761" rx="1"/><line x1="122" y1="69" x2="122" y2="81" stroke="#347761" stroke-width="1.6" stroke-linecap="round"/><circle cx="122" cy="57" r="2.5" fill="#dbe5df"/><circle cx="122" cy="69" r="2.5" fill="#347761"/><circle cx="122" cy="81" r="2.5" fill="#347761"/><rect x="132" y="40" width="8" height="4" fill="#347761" rx="1"/><line x1="136" y1="57" x2="136" y2="81" stroke="#347761" stroke-width="1.6" stroke-linecap="round"/><circle cx="136" cy="57" r="2.5" fill="#347761"/><circle cx="136" cy="69" r="2.5" fill="#347761"/><circle cx="136" cy="81" r="2.5" fill="#347761"/><rect x="14.0" y="53" width="21.0" height="7" fill="#527f99" rx="1"/><rect x="20.0" y="65" width="15.0" height="7" fill="#527f99" rx="1"/><rect x="23.0" y="77" width="12.0" height="7" fill="#527f99" rx="1"/></svg>