<svg xmlns="http://www.w3.org/2000/svg" viewBox="0 0 160 96" role="img"><title>hexbin</title><line x1="18" y1="12" x2="18" y2="80" stroke="#dbe5df" stroke-width="1.3" stroke-linecap="round"/><line x1="18" y1="80" x2="146" y2="80" stroke="#dbe5df" stroke-width="1.3" stroke-linecap="round"/><path d="M24 65L27 60H33L36 65L33 70H27Z" fill="#edf3ee" stroke="#fff" stroke-width="0.7" stroke-linejoin="round" stroke-linecap="round"/><path d="M24 53L27 48H33L36 53L33 58H27Z" fill="#b7d0c1" stroke="#fff" stroke-width="0.7" stroke-linejoin="round" stroke-linecap="round"/><path d="M24 41L27 36H33L36 41L33 46H27Z" fill="#76a58d" stroke="#fff" stroke-width="0.7" stroke-linejoin="round" stroke-linecap="round"/><path d="M24 29L27 24H33L36 29L33 34H27Z" fill="#347761" stroke="#fff" stroke-width="0.7" stroke-linejoin="round" stroke-linecap="round"/><path d="M39 59L42 54H48L51 59L48 64H42Z" fill="#b7d0c1" stroke="#fff" stroke-width="0.7" stroke-linejoin="round" stroke-linecap="round"/><path d="M39 47L42 42H48L51 47L48 52H42Z" fill="#76a58d" stroke="#fff" stroke-width="0.7" stroke-linejoin="round" stroke-linecap="round"/><path d="M39 35L42 30H48L51 35L48 40H42Z" fill="#347761" stroke="#fff" stroke-width="0.7" stroke-linejoin="round" stroke-linecap="round"/><path d="M39 23L42 18H48L51 23L48 28H42Z" fill="#edf3ee" stroke="#fff" stroke-width="0.7" stroke-linejoin="round" stroke-linecap="round"/><path d="M54 65L57 60H63L66 65L63 70H57Z" fill="#76a58d" stroke="#fff" stroke-width="0.7" stroke-linejoin="round" stroke-linecap="round"/><path d="M54 53L57 48H63L66 53L63 58H57Z" fill="#347761" stroke="#fff" stroke-width="0.7" stroke-linejoin="round" stroke-linecap="round"/><path d="M54 41L57 36H63L66 41L63 46H57Z" fill="#edf3ee" stroke="#fff" stroke-width="0.7" stroke-linejoin="round" stroke-linecap="round"/><path d="M54 29L57 24H63L66 29L63 34H57Z" fill="#b7d0c1" stroke="#fff" stroke-width="0.7" stroke-linejoin="round" stroke-linecap="round"/><path d="M69 59L72 54H78L81 59L78 64H72Z" fill="#347761" stroke="#fff" stroke-width="0.7" stroke-linejoin="round" stroke-linecap="round"/><path d="M69 47L72 42H78L81 47L78 52H72Z" fill="#edf3ee" stroke="#fff" stroke-width="0.7" stroke-linejoin="round" stroke-linecap="round"/><path d="M69 35L72 30H78L81 35L78 40H72Z" fill="#b7d0c1" stroke="#fff" stroke-width="0.7" stroke-linejoin="round" stroke-linecap="round"/><path d="M69 23L72 18H78L81 23L78 28H72Z" fill="#76a58d" stroke="#fff" stroke-width="0.7" stroke-linejoin="round" stroke-linecap="round"/><path d="M84 53L87 48H93L96 53L93 58H87Z" fill="#b7d0c1" stroke="#fff" stroke-width="0.7" stroke-linejoin="round" stroke-linecap="round"/><path d="M84 41L87 36H93L96 41L93 46H87Z" fill="#76a58d" stroke="#fff" stroke-width="0.7" stroke-linejoin="round" stroke-linecap="round"/><path d="M84 29L87 24H93L96 29L93 34H87Z" fill="#347761" stroke="#fff" stroke-width="0.7" stroke-linejoin="round" stroke-linecap="round"/><path d="M99 35L102 30H108L111 35L108 40H102Z" fill="#347761" stroke="#fff" stroke-width="0.7" stroke-linejoin="round" stroke-linecap="round"/><path d="M99 23L102 18H108L111 23L108 28H102Z" fill="#edf3ee" stroke="#fff" stroke-width="0.7" stroke-linejoin="round" stroke-linecap="round"/><path d="M114 29L117 24H123L126 29L123 34H117Z" fill="#b7d0c1" stroke="#fff" stroke-width="0.7" stroke-linejoin="round" stroke-linecap="round"/></svg>